TITLE ""
FILE "1Q_t_0878-0887.mp3" MP3
  TRACK 01 AUDIO
    TITLE "1Q_t_0878-0887_01"
    INDEX 01 00:00:00
  TRACK 02 AUDIO
    TITLE "1Q_t_0878-0887_02"
    INDEX 01 00:01:25
  TRACK 03 AUDIO
    TITLE "1Q_t_0878-0887_03"
    INDEX 01 00:01:31
  TRACK 04 AUDIO
    TITLE "1Q_t_0878-0887_04"
    INDEX 01 00:04:06
  TRACK 05 AUDIO
    TITLE "1Q_t_0878-0887_05"
    INDEX 01 00:04:14
  TRACK 06 AUDIO
    TITLE "1Q_t_0878-0887_06"
    INDEX 01 00:09:23
  TRACK 07 AUDIO
    TITLE "1Q_t_0878-0887_07"
    INDEX 01 00:09:68
  TRACK 08 AUDIO
    TITLE "1Q_t_0878-0887_08"
    INDEX 01 00:11:22
  TRACK 09 AUDIO
    TITLE "1Q_t_0878-0887_09"
    INDEX 01 00:11:32
  TRACK 10 AUDIO
    TITLE "1Q_t_0878-0887_10"
    INDEX 01 00:13:62
  TRACK 11 AUDIO
    TITLE "1Q_t_0878-0887_11"
    INDEX 01 00:13:68
  TRACK 12 AUDIO
    TITLE "1Q_t_0878-0887_12"
    INDEX 01 00:19:39
  TRACK 13 AUDIO
    TITLE "1Q_t_0878-0887_13"
    INDEX 01 00:20:13
  TRACK 14 AUDIO
    TITLE "1Q_t_0878-0887_14"
    INDEX 01 00:21:24
  TRACK 15 AUDIO
    TITLE "1Q_t_0878-0887_15"
    INDEX 01 00:21:34
  TRACK 16 AUDIO
    TITLE "1Q_t_0878-0887_16"
    INDEX 01 00:23:66
  TRACK 17 AUDIO
    TITLE "1Q_t_0878-0887_17"
    INDEX 01 00:23:74
  TRACK 18 AUDIO
    TITLE "1Q_t_0878-0887_18"
    INDEX 01 00:30:07
  TRACK 19 AUDIO
    TITLE "1Q_t_0878-0887_19"
    INDEX 01 00:30:54
  TRACK 20 AUDIO
    TITLE "1Q_t_0878-0887_20"
    INDEX 01 00:32:01
  TRACK 21 AUDIO
    TITLE "1Q_t_0878-0887_21"
    INDEX 01 00:32:08
  TRACK 22 AUDIO
    TITLE "1Q_t_0878-0887_22"
    INDEX 01 00:36:71
  TRACK 23 AUDIO
    TITLE "1Q_t_0878-0887_23"
    INDEX 01 00:37:02
  TRACK 24 AUDIO
    TITLE "1Q_t_0878-0887_24"
    INDEX 01 00:42:01
  TRACK 25 AUDIO
    TITLE "1Q_t_0878-0887_25"
    INDEX 01 00:42:46
  TRACK 26 AUDIO
    TITLE "1Q_t_0878-0887_26"
    INDEX 01 00:43:57
  TRACK 27 AUDIO
    TITLE "1Q_t_0878-0887_27"
    INDEX 01 00:43:65
  TRACK 28 AUDIO
    TITLE "1Q_t_0878-0887_28"
    INDEX 01 00:46:34
  TRACK 29 AUDIO
    TITLE "1Q_t_0878-0887_29"
    INDEX 01 00:46:40
  TRACK 30 AUDIO
    TITLE "1Q_t_0878-0887_30"
    INDEX 01 00:53:16
  TRACK 31 AUDIO
    TITLE "1Q_t_0878-0887_31"
    INDEX 01 00:53:63
  TRACK 32 AUDIO
    TITLE "1Q_t_0878-0887_32"
    INDEX 01 00:55:15
  TRACK 33 AUDIO
    TITLE "1Q_t_0878-0887_33"
    INDEX 01 00:55:27
  TRACK 34 AUDIO
    TITLE "1Q_t_0878-0887_34"
    INDEX 01 00:58:37
  TRACK 35 AUDIO
    TITLE "1Q_t_0878-0887_35"
    INDEX 01 00:58:45
  TRACK 36 AUDIO
    TITLE "1Q_t_0878-0887_36"
    INDEX 01 01:04:55
  TRACK 37 AUDIO
    TITLE "1Q_t_0878-0887_37"
    INDEX 01 01:05:27
  TRACK 38 AUDIO
    TITLE "1Q_t_0878-0887_38"
    INDEX 01 01:06:23
  TRACK 39 AUDIO
    TITLE "1Q_t_0878-0887_39"
    INDEX 01 01:06:33
  TRACK 40 AUDIO
    TITLE "1Q_t_0878-0887_40"
    INDEX 01 01:08:41
  TRACK 41 AUDIO
    TITLE "1Q_t_0878-0887_41"
    INDEX 01 01:08:49
  TRACK 42 AUDIO
    TITLE "1Q_t_0878-0887_42"
    INDEX 01 01:14:71
  TRACK 43 AUDIO
    TITLE "1Q_t_0878-0887_43"
    INDEX 01 01:15:41
  TRACK 44 AUDIO
    TITLE "1Q_t_0878-0887_44"
    INDEX 01 01:16:62
  TRACK 45 AUDIO
    TITLE "1Q_t_0878-0887_45"
    INDEX 01 01:16:72
  TRACK 46 AUDIO
    TITLE "1Q_t_0878-0887_46"
    INDEX 01 01:19:71
  TRACK 47 AUDIO
    TITLE "1Q_t_0878-0887_47"
    INDEX 01 01:20:05
  TRACK 48 AUDIO
    TITLE "1Q_t_0878-0887_48"
    INDEX 01 01:25:30
  TRACK 49 AUDIO
    TITLE "1Q_t_0878-0887_49"
    INDEX 01 01:25:73
  TRACK 50 AUDIO
    TITLE "1Q_t_0878-0887_50"
    INDEX 01 01:27:39
  TRACK 51 AUDIO
    TITLE "1Q_t_0878-0887_51"
    INDEX 01 01:27:49
  TRACK 52 AUDIO
    TITLE "1Q_t_0878-0887_52"
    INDEX 01 01:30:14
  TRACK 53 AUDIO
    TITLE "1Q_t_0878-0887_53"
    INDEX 01 01:30:21
  TRACK 54 AUDIO
    TITLE "1Q_t_0878-0887_54"
    INDEX 01 01:37:33
  TRACK 55 AUDIO
    TITLE "1Q_t_0878-0887_55"
    INDEX 01 01:38:07
  TRACK 56 AUDIO
    TITLE "1Q_t_0878-0887_56"
    INDEX 01 01:39:05
  TRACK 57 AUDIO
    TITLE "1Q_t_0878-0887_57"
    INDEX 01 01:39:16
  TRACK 58 AUDIO
    TITLE "1Q_t_0878-0887_58"
    INDEX 01 01:41:35
  TRACK 59 AUDIO
    TITLE "1Q_t_0878-0887_59"
    INDEX 01 01:41:41
  TRACK 60 AUDIO
    TITLE "1Q_t_0878-0887_60"
    INDEX 01 01:46:38
